# 3ds Max Wavefront OBJ Exporter v0.97b - (c)2007 guruware
# File Created: 30.01.2016 13:22:07

#
# object Pyramid001
#

v  0.0997 36.2103 0.0115
v  -2.1136 32.7579 2.2249
v  2.3130 32.7579 2.2249
v  2.3130 32.7579 -2.2018
v  -2.1136 32.7579 -2.2018
v  -6.2382 0.1132 6.3494
v  0.0997 0.1132 0.0115
v  6.4375 0.1132 6.3494
v  6.4375 0.1132 -6.3263
v  -6.2382 0.1132 -6.3263
v  -4.2050 2.7401 4.3162
v  4.4044 2.7401 4.3162
v  -4.2050 2.7401 -4.2931
v  4.4044 2.7401 -4.2931
# 14 vertices

vn 0.0000 0.5397 0.8419
vn 0.8419 0.5397 -0.0000
vn 0.0000 0.5397 -0.8419
vn -0.8419 0.5397 -0.0000
vn 0.0000 -1.0000 -0.0000
vn 0.0000 0.0695 0.9976
vn -0.9976 0.0695 -0.0000
vn 0.0000 0.0695 -0.9976
vn 0.9976 0.0695 -0.0000
vn 0.0000 0.6121 0.7908
vn -0.7908 0.6121 -0.0000
vn 0.0000 0.6121 -0.7908
vn 0.7908 0.6121 -0.0000
# 13 vertex normals

vt 0.6828 0.6851 0.0000
vt 0.6440 0.6133 0.0000
vt 0.7215 0.6133 0.0000
vt 0.7476 0.6440 0.0000
vt 0.7088 0.5722 0.0000
vt 0.7863 0.5722 0.0000
vt 0.2965 0.6400 0.0000
vt 0.2577 0.5682 0.0000
vt 0.3352 0.5682 0.0000
vt 0.6169 0.6479 0.0000
vt 0.5781 0.5761 0.0000
vt 0.6556 0.5761 0.0000
vt 0.5630 0.6538 0.0000
vt 0.4520 0.7648 0.0000
vt 0.3410 0.6538 0.0000
vt 0.3168 0.6636 0.0000
vt 0.4278 0.7746 0.0000
vt 0.3168 0.8856 0.0000
vt 0.3351 0.8975 0.0000
vt 0.4461 0.7865 0.0000
vt 0.5571 0.8975 0.0000
vt 0.5801 0.8916 0.0000
vt 0.4691 0.7806 0.0000
vt 0.5801 0.6696 0.0000
vt 0.3463 0.5402 0.0000
vt 0.3097 0.0132 0.0000
vt 0.4605 0.0132 0.0000
vt 0.4239 0.5402 0.0000
vt 0.1305 0.5416 0.0000
vt 0.0939 0.0146 0.0000
vt 0.2446 0.0146 0.0000
vt 0.2080 0.5416 0.0000
vt 0.7356 0.5392 0.0000
vt 0.6989 0.0122 0.0000
vt 0.8497 0.0122 0.0000
vt 0.8131 0.5392 0.0000
vt 0.5511 0.5394 0.0000
vt 0.5145 0.0124 0.0000
vt 0.6653 0.0124 0.0000
vt 0.6286 0.5394 0.0000
vt 0.5551 0.6352 0.0000
vt 0.3331 0.6352 0.0000
vt 0.3688 0.5770 0.0000
vt 0.5195 0.5770 0.0000
vt 0.6049 0.8881 0.0000
vt 0.6049 0.6661 0.0000
vt 0.6630 0.7017 0.0000
vt 0.6630 0.8524 0.0000
vt 0.3412 0.9189 0.0000
vt 0.5632 0.9189 0.0000
vt 0.5276 0.9771 0.0000
vt 0.3768 0.9771 0.0000
vt 0.2969 0.6634 0.0000
vt 0.2969 0.8854 0.0000
vt 0.2387 0.8498 0.0000
vt 0.2387 0.6990 0.0000
# 56 texture coords

g Pyramid001
s 4
f 1/1/1 2/2/1 3/3/1 
s 2
f 1/4/2 3/5/2 4/6/2 
s 16
f 1/7/3 4/8/3 5/9/3 
s 32
f 1/10/4 5/11/4 2/12/4 
s 8
f 6/13/5 7/14/5 8/15/5 
f 8/16/5 7/17/5 9/18/5 
f 9/19/5 7/20/5 10/21/5 
f 10/22/5 7/23/5 6/24/5 
s off
f 2/25/6 11/26/6 12/27/6 3/28/6 
f 5/29/7 13/30/7 11/31/7 2/32/7 
f 4/33/8 14/34/8 13/35/8 5/36/8 
f 3/37/9 12/38/9 14/39/9 4/40/9 
f 6/41/10 8/42/10 12/43/10 11/44/10 
f 10/45/11 6/46/11 11/47/11 13/48/11 
f 9/49/12 10/50/12 13/51/12 14/52/12 
f 8/53/13 9/54/13 14/55/13 12/56/13 
# 8 polygons - 8 triangles

