# 3ds Max Wavefront OBJ Exporter v0.97b - (c)2007 guruware
# File Created: 30.01.2016 17:23:15

#
# object Box001
#

v  -2.4256 0.0000 5.0063
v  -2.4256 0.0000 -3.9141
v  5.0105 0.0000 -3.9141
v  5.0105 0.0000 5.0063
v  -5.9633 34.6570 2.3919
v  -9.2261 32.0475 2.2106
v  -5.9192 31.3575 -1.1185
v  -9.1820 32.5117 -1.2997
v  -8.5602 38.4120 1.4665
v  -0.2408 1.1371 4.9603
v  -4.1421 -1.6123 -0.1861
v  0.3802 -1.1371 -3.8682
v  4.2815 1.6123 1.2783
v  -15.0667 27.2203 -2.4175
v  -14.8016 27.1754 -2.6806
v  -15.1154 27.0346 -2.9727
v  -15.3805 27.0795 -2.7096
v  -11.8820 25.0976 -1.8210
v  -14.0123 25.0332 -0.3662
v  -12.9628 22.7380 -3.5082
v  -15.0931 22.6736 -2.0534
v  -1.4514 2.1564 3.4950
v  -1.7868 -1.5869 -2.4330
v  4.0364 -2.1564 -2.4028
v  4.3718 1.5869 3.5251
v  -3.7451 25.7644 -15.0762
v  -3.4517 25.7983 -15.1596
v  -3.5224 25.6274 -15.4780
v  -3.8158 25.5935 -15.3945
v  -1.8523 23.9593 -12.7876
v  -4.3191 23.6739 -12.0861
v  -2.4472 22.5225 -15.4642
v  -4.9141 22.2372 -14.7627
# 33 vertices

vn 0.0000 -1.0000 -0.0000
vn -0.0064 0.0746 0.9972
vn 0.0000 0.0752 0.9972
vn -0.0884 0.0660 0.9939
vn -0.1063 0.0640 0.9923
vn 0.9453 0.3258 -0.0188
vn 0.9443 0.3291 -0.0000
vn 0.9337 0.2824 -0.2202
vn 0.9290 0.2755 -0.2473
vn 0.0061 0.0828 -0.9965
vn 0.0000 0.0802 -0.9968
vn 0.0786 0.1140 -0.9904
vn 0.0981 0.1222 -0.9876
vn -0.9783 -0.2071 -0.0028
vn -0.9782 -0.2076 -0.0000
vn -0.9789 -0.2014 -0.0329
vn -0.9790 -0.2003 -0.0388
vn -0.1592 0.1311 0.9785
vn 0.7941 0.4479 -0.4110
vn 0.1913 0.4000 -0.8963
vn -0.9946 0.1042 0.0013
vn 0.3061 -0.9165 0.2576
vn -0.1409 0.9426 -0.3029
vn 0.5294 0.4591 0.7134
vn 0.5312 0.4595 0.7118
vn 0.4981 0.4515 0.7403
vn 0.4941 0.4505 0.7435
vn 0.6326 0.3611 -0.6852
vn 0.6369 0.3662 -0.6784
vn 0.5776 0.2994 -0.7594
vn 0.5688 0.2899 -0.7697
vn -0.5753 -0.3164 -0.7543
vn -0.5782 -0.3185 -0.7512
vn -0.5414 -0.2917 -0.7885
vn -0.5344 -0.2866 -0.7952
vn -0.6965 -0.2535 0.6713
vn -0.7002 -0.2549 0.6669
vn -0.6523 -0.2368 0.7201
vn -0.6390 -0.2317 0.7335
vn 0.3890 0.7384 0.5508
vn 0.4944 0.3530 -0.7943
vn -0.5732 -0.1718 -0.8012
vn -0.8439 0.0477 0.5344
vn -0.0850 -0.8403 0.5354
vn -0.2218 0.8788 -0.4224
vn 0.0598 0.5980 0.7993
vn 0.0544 0.5981 0.7996
vn 0.1425 0.5939 0.7918
vn 0.1561 0.5929 0.7900
vn 0.9720 0.1634 -0.1689
vn 0.9721 0.1696 -0.1621
vn 0.9656 0.0946 -0.2424
vn 0.9630 0.0804 -0.2572
vn -0.0510 -0.4662 -0.8832
vn -0.0407 -0.4635 -0.8852
vn -0.1668 -0.4937 -0.8535
vn -0.1837 -0.4971 -0.8480
vn -0.9926 -0.0591 0.1058
vn -0.9934 -0.0629 0.0959
vn -0.9787 -0.0200 0.2043
vn -0.9747 -0.0124 0.2233
vn 0.0713 0.8110 0.5807
vn 0.8823 0.3040 -0.3593
vn -0.2621 -0.0950 -0.9604
vn -0.9474 0.3176 0.0401
# 65 vertex normals

vt 0.9766 0.0020 0.0000
vt 0.9766 0.1309 0.0000
vt 0.8477 0.1309 0.0000
vt 0.8477 0.0020 0.0000
vt 0.7161 0.4912 0.0000
vt 0.7948 0.4706 0.0000
vt 0.7752 0.8689 0.0000
vt 0.7333 0.8506 0.0000
vt 0.5606 0.0297 0.0000
vt 0.6578 0.0271 0.0000
vt 0.6374 0.3911 0.0000
vt 0.5992 0.4266 0.0000
vt 0.0020 0.0020 0.0000
vt 0.1197 0.0020 0.0000
vt 0.2267 0.5184 0.0000
vt 0.1748 0.5005 0.0000
vt 0.2440 0.0020 0.0000
vt 0.3852 0.0020 0.0000
vt 0.3409 0.5207 0.0000
vt 0.2853 0.5277 0.0000
vt 0.7969 0.8820 0.0000
vt 0.8969 0.8820 0.0000
vt 0.8469 0.9320 0.0000
vt 0.8969 0.9820 0.0000
vt 0.5130 0.9789 0.0000
vt 0.4581 0.9789 0.0000
vt 0.4386 0.8772 0.0000
vt 0.4024 0.9725 0.0000
vt 0.9340 0.2531 0.0000
vt 0.9340 0.3546 0.0000
vt 0.8325 0.3546 0.0000
vt 0.8325 0.2531 0.0000
vt 0.8841 0.1486 0.0000
vt 0.8924 0.1482 0.0000
vt 0.8899 0.1526 0.0000
vt 0.8868 0.1519 0.0000
vt 0.6816 0.0719 0.0000
vt 0.7435 0.0558 0.0000
vt 0.7276 0.3692 0.0000
vt 0.7011 0.3787 0.0000
vt 0.2440 0.5450 0.0000
vt 0.3551 0.5450 0.0000
vt 0.3203 0.9767 0.0000
vt 0.2761 0.9979 0.0000
vt 0.4024 0.0020 0.0000
vt 0.4951 0.0020 0.0000
vt 0.5793 0.4164 0.0000
vt 0.5385 0.4131 0.0000
vt 0.5229 0.5315 0.0000
vt 0.5996 0.5317 0.0000
vt 0.5747 0.8380 0.0000
vt 0.5444 0.8229 0.0000
vt 0.5308 0.4425 0.0000
vt 0.5708 0.4336 0.0000
vt 0.5527 0.4892 0.0000
vt 0.5469 0.4902 0.0000
vt 0.9485 0.1782 0.0000
vt 0.9251 0.2232 0.0000
vt 0.8817 0.2232 0.0000
vt 0.8477 0.1857 0.0000
vt 0.6980 0.8965 0.0000
vt 0.6980 0.9980 0.0000
vt 0.5965 0.9980 0.0000
vt 0.5965 0.8965 0.0000
vt 0.8883 0.3741 0.0000
vt 0.8932 0.3719 0.0000
vt 0.8959 0.3777 0.0000
vt 0.8914 0.3787 0.0000
vt 0.8308 0.5241 0.0000
vt 0.8928 0.5084 0.0000
vt 0.8761 0.8185 0.0000
vt 0.8480 0.8160 0.0000
vt 0.6182 0.5453 0.0000
vt 0.6950 0.5458 0.0000
vt 0.6730 0.8587 0.0000
vt 0.6394 0.8551 0.0000
vt 0.0020 0.5357 0.0000
vt 0.0946 0.5357 0.0000
vt 0.1816 0.9543 0.0000
vt 0.1428 0.9671 0.0000
vt 0.4024 0.4336 0.0000
vt 0.5136 0.4336 0.0000
vt 0.4848 0.8557 0.0000
vt 0.4359 0.8599 0.0000
vt 0.7199 0.8965 0.0000
vt 0.7552 0.9170 0.0000
vt 0.7194 0.9573 0.0000
vt 0.7152 0.9548 0.0000
vt 0.7737 0.9624 0.0000
vt 0.7216 0.9627 0.0000
vt 0.9071 0.4294 0.0000
vt 0.8662 0.4294 0.0000
vt 0.8325 0.3933 0.0000
# 93 texture coords

g Box001
s 2
f 1/1/1 2/2/1 3/3/1 4/4/1 
s 8
f 1/5/2 4/6/3 5/7/4 6/8/5 
s 16
f 4/9/6 3/10/7 7/11/8 5/12/9 
s 32
f 3/13/10 2/14/11 8/15/12 7/16/13 
s 64
f 2/17/14 1/18/15 6/19/16 8/20/17 
s off
f 6/21/18 5/22/18 9/23/18 
f 5/22/19 7/24/19 9/23/19 
f 7/25/20 8/26/20 9/27/20 
f 8/26/21 6/28/21 9/27/21 
s 2
f 10/29/22 11/30/22 12/31/22 13/32/22 
s 4
f 14/33/23 15/34/23 16/35/23 17/36/23 
s 8
f 10/37/24 13/38/25 18/39/26 19/40/27 
s 16
f 13/41/28 12/42/29 20/43/30 18/44/31 
s 32
f 12/45/32 11/46/33 21/47/34 20/48/35 
s 64
f 11/49/36 10/50/37 19/51/38 21/52/39 
s off
f 19/53/40 18/54/40 15/55/40 14/56/40 
f 18/57/41 20/58/41 16/35/41 15/34/41 
f 20/58/42 21/59/42 17/36/42 16/35/42 
f 21/59/43 19/60/43 14/33/43 17/36/43 
s 2
f 22/61/44 23/62/44 24/63/44 25/64/44 
s 4
f 26/65/45 27/66/45 28/67/45 29/68/45 
s 8
f 22/69/46 25/70/47 30/71/48 31/72/49 
s 16
f 25/73/50 24/74/51 32/75/52 30/76/53 
s 32
f 24/77/54 23/78/55 33/79/56 32/80/57 
s 64
f 23/81/58 22/82/59 31/83/60 33/84/61 
s off
f 31/85/62 30/86/62 27/87/62 26/88/62 
f 30/86/63 32/89/63 28/90/63 27/87/63 
f 32/91/64 33/92/64 29/68/64 28/67/64 
f 33/92/65 31/93/65 26/65/65 29/68/65 
# 25 polygons - 4 triangles

