# 3ds Max Wavefront OBJ Exporter v0.97b - (c)2007 guruware
# File Created: 30.01.2016 21:18:52

#
# object Cylinder001
#

v  4.0258 -1.1420 -5.3486
v  14.2343 -1.1420 1.4115
v  10.4862 -1.1420 12.5434
v  -6.0314 -1.1420 1.6053
v  -2.0387 -1.1420 12.6632
v  13.6549 28.8753 1.9931
v  10.2169 39.4433 10.2319
v  9.9877 35.1020 11.9180
v  4.2678 32.4614 -4.5407
v  9.3068 43.0787 0.9973
v  -4.1415 35.6816 2.4461
v  -2.8634 36.7787 1.6794
v  -1.0234 31.8142 12.0450
v  -1.4293 40.8474 8.6706
v  3.3743 46.8381 6.9701
v  6.0073 46.8381 6.9701
v  6.0791 46.8381 5.5483
v  3.8234 46.8381 5.5483
v  3.0024 -3.1464 -1.8499
v  8.0672 -8.2136 3.1089
v  7.6981 -3.5082 10.0938
v  -0.4968 4.6908 2.0702
v  2.4053 4.4672 9.4519
v  20.5422 4.1994 -0.6543
v  24.4438 12.3014 3.0315
v  22.7007 11.0747 4.7027
v  17.3623 10.2171 -5.9102
v  24.5801 12.3933 -3.4911
v  15.9226 18.2942 -2.3146
v  16.8427 17.7585 -2.8871
v  16.6637 16.7847 4.6022
v  19.9312 19.9253 1.1606
v  24.3060 18.9005 -0.4828
v  25.4214 17.2292 -0.3316
v  25.2961 16.8865 -1.2471
v  24.3405 18.3183 -1.3767
v  -8.1991 2.1369 9.3061
v  -10.3180 -4.9753 3.9752
v  -3.5587 -6.7900 -0.5268
v  -0.1303 4.7177 8.0988
v  2.7376 -0.7994 2.0217
v  -14.5893 9.7190 -5.8872
v  -10.9512 13.8374 -12.4985
v  -9.3997 11.2873 -11.8469
v  -13.3558 18.1070 -1.9942
v  -15.1379 19.0464 -9.1034
v  -6.6107 21.4505 -4.6013
v  -7.7607 21.6183 -4.8582
v  -3.3273 14.9472 -8.5535
v  -6.0568 20.6346 -9.7893
v  -10.1596 21.7896 -11.9189
v  -11.4721 20.5221 -12.4666
v  -12.1326 20.9498 -11.8069
v  -11.0081 22.0357 -11.3377
# 54 vertices

vn 0.0000 -1.0000 -0.0000
vn 0.9550 0.0880 -0.3388
vn 0.9837 0.1210 0.2861
vn 0.7720 0.0706 0.6522
vn 0.9719 0.0483 -0.3039
vn 0.6223 0.0411 0.7817
vn 0.0487 0.1048 -0.9595
vn 0.6263 0.2290 -0.7242
vn -0.0326 0.0718 -0.9644
vn -0.9815 0.0979 -0.3015
vn -0.9872 0.1247 -0.2729
vn -0.6372 0.2609 -0.7292
vn -0.6955 0.0800 0.6972
vn -0.9643 0.1472 0.2960
vn -0.5978 0.0639 0.7746
vn -0.0540 0.5878 0.7795
vn -0.0878 0.5660 0.7911
vn -0.0830 0.5646 0.7926
vn -0.0640 0.5750 0.7875
vn -0.0352 0.5954 0.7754
vn 0.0078 0.6371 0.7453
vn 0.8542 0.5037 0.2548
vn 0.6022 0.8118 0.0321
vn 0.7861 0.6475 0.0366
vn 0.8441 0.5722 0.0730
vn 0.7810 0.6366 -0.1293
vn -0.0000 1.0000 0.0000
vn 0.0000 1.0000 -0.0000
vn -0.6159 0.7942 -0.1217
vn -0.6380 0.7662 -0.1812
vn -0.6222 0.7839 -0.1548
vn -0.5890 0.8025 -0.1791
vn -0.5666 0.8036 -0.2325
vn -0.1887 0.8115 -0.5401
vn -0.0041 0.9150 -0.3901
vn -0.2432 0.7859 -0.5571
vn -0.2763 0.7632 -0.5736
vn -0.2791 0.7772 -0.5544
vn -0.6717 -0.7222 0.2138
vn 0.4692 -0.8597 -0.2165
vn 0.6200 -0.7480 0.2840
vn 0.5973 -0.5650 0.5795
vn 0.4554 -0.8767 -0.1766
vn 0.4644 -0.1819 0.8538
vn -0.0489 -0.3477 -0.9062
vn 0.3502 -0.7015 -0.5994
vn -0.2295 -0.0980 -0.9420
vn -0.4989 0.8136 -0.3215
vn -0.4842 0.7964 -0.3778
vn -0.3544 0.5395 -0.7497
vn -0.1636 0.7901 0.5695
vn -0.3585 0.9263 0.1347
vn -0.1707 0.7883 0.5698
vn 0.4202 0.6593 0.6188
vn 0.3682 0.6819 0.6241
vn 0.3714 0.6773 0.6272
vn 0.3850 0.6701 0.6275
vn 0.4226 0.6537 0.6230
vn 0.4772 0.6368 0.6053
vn 0.8548 -0.5191 0.2197
vn 1.0081 -0.1911 -0.0743
vn 0.9070 -0.4767 0.0013
vn 0.8635 -0.5475 0.0241
vn 0.8501 -0.5307 -0.1773
vn 0.6717 0.7222 -0.2138
vn 0.0260 0.9598 -0.2697
vn -0.0092 0.9445 -0.3177
vn 0.0091 0.9503 -0.3006
vn 0.0366 0.9405 -0.3261
vn 0.0428 0.9192 -0.3778
vn 0.3144 0.5432 -0.7506
vn 0.5373 0.4976 -0.6608
vn 0.2142 0.5692 -0.7652
vn 0.1656 0.5900 -0.7619
vn 0.1728 0.6047 -0.7496
vn 0.2460 -0.8309 0.4907
vn -0.9230 -0.4447 -0.0644
vn -0.4927 -0.7348 -0.4749
vn -0.1876 -0.7724 -0.5918
vn -0.9286 -0.4358 0.0035
vn 0.1002 -0.7313 -0.6509
vn -0.7376 0.4162 0.5298
vn -1.0006 0.0491 0.2136
vn -0.5324 0.5771 0.6023
vn 0.4181 0.8280 0.3824
vn 0.4674 0.8255 0.3341
vn -0.0409 0.8711 0.4725
vn 0.9381 0.1832 -0.3447
vn 0.7867 0.6471 0.0280
vn 0.9467 0.2180 -0.3046
vn 0.4517 0.0544 -0.8593
vn 0.5002 0.0598 -0.8344
vn 0.4975 0.0535 -0.8363
vn 0.4805 0.0486 -0.8454
vn 0.4413 0.0469 -0.8646
vn 0.3831 0.0600 -0.8888
vn -0.5869 -0.4700 -0.6634
vn -0.7397 0.1011 -0.6807
vn -0.7986 -0.1937 -0.5977
vn -0.7461 -0.3360 -0.5974
vn -0.9009 -0.1138 -0.4751
vn -0.2460 0.8309 -0.4907
vn 0.1841 0.9821 -0.0551
vn 0.1664 0.9869 -0.0021
vn 0.1694 0.9860 -0.0256
vn 0.1322 0.9912 -0.0299
vn 0.0872 0.9964 -0.0042
vn -0.3619 0.9342 0.0569
vn -0.4542 0.8904 -0.1201
vn -0.3114 0.9453 0.1141
vn -0.2866 0.9493 0.1374
vn -0.2785 0.9536 0.1237
# 112 vertex normals

vt 0.1500 0.0000 1.0000
vt -0.0500 0.0000 1.0000
vt 0.5101 0.0000 -0.3820
vt 0.3500 0.0000 1.0000
vt 0.5500 0.0000 1.0000
vt 0.9500 0.7080 1.0000
vt 0.7798 0.8447 1.0000
vt 0.7500 0.7750 1.0000
vt 0.9500 0.0000 1.0000
vt 0.7500 0.0000 1.0000
vt 0.1500 0.6556 1.0000
vt -0.0056 0.8261 1.0000
vt -0.0500 0.7080 1.0000
vt 0.3500 0.8321 1.0000
vt 0.3222 0.8497 1.0000
vt 0.5500 0.7700 1.0000
vt 0.4875 0.9150 1.0000
vt 0.5291 1.0000 0.3438
vt 0.3993 0.9150 0.3018
vt 0.7104 1.0000 0.7191
vt 0.5899 0.8261 1.0000
vt 0.5793 1.0000 0.7757
vt 0.5439 1.0000 0.2684
vt 0.7121 1.0000 0.6228
# 24 texture coords

g Cylinder001
s 1
f 1/1/1 2/2/1 3/3/1 4/4/1 
f 5/5/1 4/4/1 3/3/1 
s 8
f 6/6/2 7/7/3 8/8/4 2/9/5 
f 3/10/6 2/9/5 8/8/4 
f 9/11/7 10/12/8 6/13/2 1/1/9 
f 2/2/5 1/1/9 6/13/2 
f 1/1/9 4/4/10 11/14/11 9/11/7 
f 11/14/11 12/15/12 9/11/7 
f 13/16/13 14/17/14 11/14/11 5/5/15 
f 4/4/10 5/5/15 11/14/11 
f 3/10/6 8/8/4 13/16/13 5/5/15 
s 2
f 15/18/16 14/19/17 13/16/18 8/8/19 
f 15/18/16 8/8/19 7/7/20 16/20/21 
s 4
f 10/21/22 17/22/23 16/20/24 6/6/25 
f 6/6/25 16/20/24 7/7/26 
s 1
f 18/23/27 15/18/27 16/20/27 17/24/28 
s 16
f 14/17/29 15/18/30 18/23/31 11/14/32 
f 12/15/33 11/14/32 18/23/31 
s 32
f 18/23/34 17/24/35 10/21/36 12/15/37 
f 9/11/38 12/15/37 10/21/36 
s 1
f 19/1/39 20/2/39 21/3/39 22/4/39 
f 23/5/39 22/4/39 21/3/39 
s 8
f 24/6/40 25/7/41 26/8/42 20/9/43 
f 21/10/44 20/9/43 26/8/42 
f 27/11/45 28/12/46 24/13/40 19/1/47 
f 20/2/43 19/1/47 24/13/40 
f 19/1/47 22/4/48 29/14/49 27/11/45 
f 29/14/49 30/15/50 27/11/45 
f 31/16/51 32/17/52 29/14/49 23/5/53 
f 22/4/48 23/5/53 29/14/49 
f 21/10/44 26/8/42 31/16/51 23/5/53 
s 2
f 33/18/54 32/19/55 31/16/56 26/8/57 
f 33/18/54 26/8/57 25/7/58 34/20/59 
s 4
f 28/21/60 35/22/61 34/20/62 24/6/63 
f 24/6/63 34/20/62 25/7/64 
s 1
f 36/23/65 33/18/65 34/20/65 35/24/65 
s 16
f 32/17/66 33/18/67 36/23/68 29/14/69 
f 30/15/70 29/14/69 36/23/68 
s 32
f 36/23/71 35/24/72 28/21/73 30/15/74 
f 27/11/75 30/15/74 28/21/73 
s 1
f 37/1/76 38/2/76 39/3/76 40/4/76 
f 41/5/76 40/4/76 39/3/76 
s 8
f 42/6/77 43/7/78 44/8/79 38/9/80 
f 39/10/81 38/9/80 44/8/79 
f 45/11/82 46/12/83 42/13/77 37/1/84 
f 38/2/80 37/1/84 42/13/77 
f 37/1/84 40/4/85 47/14/86 45/11/82 
f 47/14/86 48/15/87 45/11/82 
f 49/16/88 50/17/89 47/14/86 41/5/90 
f 40/4/85 41/5/90 47/14/86 
f 39/10/81 44/8/79 49/16/88 41/5/90 
s 2
f 51/18/91 50/19/92 49/16/93 44/8/94 
f 51/18/91 44/8/94 43/7/95 52/20/96 
s 4
f 46/21/97 53/22/98 52/20/99 42/6/100 
f 42/6/100 52/20/99 43/7/101 
s 1
f 54/23/102 51/18/102 52/20/102 53/24/102 
s 16
f 50/17/103 51/18/104 54/23/105 47/14/106 
f 48/15/107 47/14/106 54/23/105 
s 32
f 54/23/108 53/24/109 46/21/110 48/15/111 
f 45/11/112 48/15/111 46/21/110 
# 36 polygons - 24 triangles

