# 3ds Max Wavefront OBJ Exporter v0.97b - (c)2007 guruware
# File Created: 30.01.2016 01:51:02

mtllib treeobj1.mtl

#
# object Box001
#

v  -2.0927 -0.2008 5.3370
v  -2.0927 0.2008 0.7464
v  4.8186 0.2008 0.7464
v  4.8186 -0.2008 5.3370
v  -1.1638 19.8500 12.6185
v  3.8897 15.3180 12.2220
v  3.8897 14.5009 8.7683
v  -0.3958 17.7522 9.0528
v  -1.4415 1.0504 4.4416
v  -1.4415 -0.0550 0.8690
v  4.1674 -0.0550 0.8690
v  4.1674 1.0504 4.4416
v  0.4308 16.2678 3.6305
v  2.2952 16.2678 3.6305
v  2.2952 15.9004 2.4430
v  0.4308 15.9004 2.4430
# 16 vertices

vn 0.0000 -0.9962 -0.0872
vn 0.5980 0.7562 -0.2656
vn 0.6497 0.7398 -0.1750
vn 0.6213 0.7501 -0.2266
vn 0.5569 0.7628 -0.3288
vn -0.0433 -0.3912 0.9193
vn 0.0000 -0.4055 0.9141
vn -0.1821 -0.3392 0.9229
vn -0.2185 -0.3241 0.9204
vn 0.9981 0.0623 0.0033
vn 0.9981 0.0618 0.0054
vn 0.9977 0.0661 -0.0132
vn 0.9976 0.0667 -0.0158
vn 0.0443 0.4381 -0.8978
vn 0.0000 0.4278 -0.9039
vn 0.2107 0.4686 -0.8579
vn 0.3100 0.4804 -0.8204
vn -0.9976 0.0639 -0.0277
vn -0.9990 0.0449 0.0039
vn -0.9465 0.1986 -0.2546
vn -0.9061 0.2494 -0.3419
vn 0.0000 -0.9553 0.2956
vn 0.0000 0.9553 -0.2956
vn 0.0000 0.0532 0.9986
vn 0.9921 0.1201 -0.0372
vn 0.0000 0.0982 -0.9952
vn -0.9921 0.1201 -0.0372
# 27 vertex normals

vt 0.7440 0.0308 0.0000
vt 0.7440 0.1634 0.0000
vt 0.5450 0.1634 0.0000
vt 0.5450 0.0308 0.0000
vt 0.7518 0.6400 0.0000
vt 0.9032 0.5162 0.0000
vt 0.9831 0.5795 0.0000
vt 0.8657 0.6806 0.0000
vt 0.1009 0.0395 0.0000
vt 0.2980 0.0231 0.0000
vt 0.3141 0.5118 0.0000
vt 0.1763 0.6492 0.0000
vt 0.7886 0.0649 0.0000
vt 0.9116 0.0152 0.0000
vt 0.8932 0.4876 0.0000
vt 0.8153 0.5537 0.0000
vt 0.5531 0.1878 0.0000
vt 0.7508 0.1837 0.0000
vt 0.7157 0.7433 0.0000
vt 0.5874 0.6588 0.0000
vt 0.3482 0.0169 0.0000
vt 0.4729 0.0588 0.0000
vt 0.4378 0.6722 0.0000
vt 0.3642 0.5775 0.0000
vt 0.4774 0.8176 0.0000
vt 0.4774 0.7099 0.0000
vt 0.6389 0.7099 0.0000
vt 0.6389 0.8176 0.0000
vt 0.5450 0.8665 0.0000
vt 0.4913 0.8665 0.0000
vt 0.4913 0.8308 0.0000
vt 0.5450 0.8308 0.0000
vt 0.9287 0.6877 0.0000
vt 0.9839 0.8395 0.0000
vt 0.5533 0.9389 0.0000
vt 0.5349 0.8884 0.0000
vt 0.0404 0.9529 0.0000
vt 0.0148 0.8484 0.0000
vt 0.4739 0.9203 0.0000
vt 0.4824 0.9550 0.0000
vt 0.0120 0.7734 0.0000
vt 0.0673 0.6216 0.0000
vt 0.4825 0.8301 0.0000
vt 0.4642 0.8806 0.0000
vt 0.9861 0.8803 0.0000
vt 0.9605 0.9849 0.0000
vt 0.5185 0.9870 0.0000
vt 0.5270 0.9522 0.0000
# 48 texture coords

g Box001
usemtl wire_198225087
s 2
f 1/1/1 2/2/1 3/3/1 4/4/1 
s 4
f 5/5/2 6/6/3 7/7/4 8/8/5 
s 8
f 1/9/6 4/10/7 6/11/8 5/12/9 
s 16
f 4/13/10 3/14/11 7/15/12 6/16/13 
s 32
f 3/17/14 2/18/15 8/19/16 7/20/17 
s 64
f 2/21/18 1/22/19 5/23/20 8/24/21 
s 2
f 9/25/22 10/26/22 11/27/22 12/28/22 
s 4
f 13/29/23 14/30/23 15/31/23 16/32/23 
s 8
f 9/33/24 12/34/24 14/35/24 13/36/24 
s 16
f 12/37/25 11/38/25 15/39/25 14/40/25 
s 32
f 11/41/26 10/42/26 16/43/26 15/44/26 
s 64
f 10/45/27 9/46/27 13/47/27 16/48/27 
# 12 polygons

